# xmcd CD database file
#
# Track frame offsets:
#	150
#	13236
#	37341
#	53663
#	68990
#	86263
#	103995
#	120573
#	138170
#	153646
#	173663
#	188882
#	206783
#	222334
#	240504
#	254262
#	268602
#	286839
#	303187
#	317895
#
# Disc length: 4427 seconds
#
# Revision: 0
# Processed by: cddbd v1.4PL0 Copyright (c) Steve Scherf et al.
# Submitted via: CDex 1.50Beta7
#
DISCID=25114914
DTITLE=Various Artist - Raindance - Volume 2
DYEAR=1998
DGENRE=New Age
TTITLE0=Siempre - Rose (Titanic Theme)
TTITLE1=Virgo - Frozen
TTITLE2=Ypsillon - Ameno
TTITLE3=Omega - Era
TTITLE4=Wild Flower - Drifting pollen
TTITLE5=Endless - Mystify
TTITLE6=Camuflage - Coming of the Herds
TTITLE7=Franca - Ploug
TTITLE8=Voices of Nature - Initiation to Father Ka
TTITLE9=Kamar-Oun - Awa Awa
TTITLE10=Dolci Solari - Halo
TTITLE11=Baghee-Ra - Syo Léh Y Mana
TTITLE12=Moosun - Fresh Sound of Spring
TTITLE13=The Dew - Misty Mountains
TTITLE14=Tipi - Into the Wetlands
TTITLE15=The Gnome - Nocturne
TTITLE16=Omega - Mother
TTITLE17=Kamar-Oun - Alane
TTITLE18=Dj Hydro I - Sunchyne
TTITLE19=Aboriginal - Olga Mountains
EXTD=YEAR: 1998
EXTT0=
EXTT1=
EXTT2=
EXTT3=
EXTT4=
EXTT5=
EXTT6=
EXTT7=
EXTT8=
EXTT9=
EXTT10=
EXTT11=
EXTT12=
EXTT13=
EXTT14=
EXTT15=
EXTT16=
EXTT17=
EXTT18=
EXTT19=
PLAYORDER=
